<?xml version="1.0" encoding="UTF-8" standalone="no"?>
<!-- Created with Inkscape (http://www.inkscape.org/) -->

<svg
   version="1.1"
   id="svg191"
   width="426.66666"
   height="426.66666"
   viewBox="0 0 426.66666 426.66666"
   xmlns="http://www.w3.org/2000/svg"
   xmlns:svg="http://www.w3.org/2000/svg">
  <defs
     id="defs195">
    <clipPath
       clipPathUnits="userSpaceOnUse"
       id="clipPath205">
      <path
         d="M 0,320 H 320 V 0 H 0 Z"
         id="path203" />
    </clipPath>
  </defs>
  <g
     id="g197"
     transform="matrix(1.3333333,0,0,-1.3333333,0,426.66667)">
    <g
       id="g199">
      <g
         id="g201"
         clip-path="url(#clipPath205)">
        <g
           id="g207"
           transform="translate(145.4443,225.0039)">
          <path
             d="m 0,0 c 0.574,0.205 0.712,0.767 0.975,1.206 4.252,7.095 8.489,14.199 12.737,21.297 1.298,2.169 1.441,2.167 2.905,0.076 8.596,-12.289 17.191,-24.578 25.79,-36.864 1.171,-1.673 2.367,-3.33 3.552,-4.994 0.066,3.77 -0.596,7.306 -1.4,10.816 C 39.716,12.658 29.529,31.145 16.592,48.282 15.627,49.56 15.08,49.578 14.109,48.249 8.673,40.807 3.404,33.253 -1.619,25.525 -11.521,10.293 -20.905,-5.24 -29.115,-21.464 c -0.643,-1.271 -0.489,-2.014 0.535,-2.936 2.651,-2.385 5.205,-4.889 7.285,-7.801 0.955,-1.339 1.473,-1.379 2.334,0.101 3.081,5.287 6.234,10.533 9.434,15.75 0.81,1.32 1.182,2.643 1.166,4.18 -0.05,4.573 0.007,9.148 -0.028,13.721 -0.011,1.501 0.537,2.3 2.127,2.188 C -5.727,3.701 -5.187,3.738 -4.648,3.738 -0.641,3.741 -0.641,3.74 0,0 m -38.131,-144.848 c -0.04,-0.797 0.358,-1.011 0.65,-1.257 5.732,-4.837 11.842,-9.097 18.778,-12.049 9.955,-4.236 19.94,-4.541 29.936,-0.096 6.217,2.766 11.626,6.747 16.649,11.248 6.557,5.877 12.947,11.942 19.504,17.82 3.41,3.058 7.156,5.683 11.358,7.606 8.006,3.663 15.444,2.494 22.401,-2.616 1.199,-0.881 1.691,-0.923 2.027,0.732 1.371,6.759 1.832,13.577 1.678,20.457 -0.026,1.149 -0.517,1.838 -1.459,2.428 -11.031,6.9 -23.338,5.92 -33.291,-2.489 -5.633,-4.76 -10.333,-10.376 -15.191,-15.857 -6.417,-7.243 -12.53,-14.763 -20.193,-20.812 -11.089,-8.754 -23.422,-12.615 -37.522,-9.964 -5.241,0.985 -10.255,2.682 -15.325,4.849 m -4.729,7.775 c 3.646,-2.356 7.532,-4.024 11.508,-5.449 9.946,-3.563 20.008,-4.609 30.195,-0.978 7.312,2.606 13.318,7.226 18.824,12.533 6.979,6.726 12.934,14.387 19.418,21.565 4.609,5.101 9.439,9.96 15.383,13.535 5.552,3.339 11.486,5.11 18.059,4.427 4.349,-0.453 8.412,-1.741 12.286,-3.685 1.345,-0.676 1.691,-0.276 1.487,1.077 -0.574,3.787 -1.124,7.581 -2.096,11.291 -0.652,2.49 -1.709,4.822 -3.227,6.906 -7.558,10.372 -22.694,11.637 -31.552,2.335 -7.779,-8.169 -15.188,-16.692 -22.716,-25.098 -7.866,-8.781 -16.204,-17.054 -25.787,-23.974 -8.992,-6.493 -18.784,-11.243 -29.787,-13.233 -3.954,-0.715 -7.949,-1.041 -11.995,-1.252 m -7.482,-3.466 c 3.276,-8.972 9.261,-17.166 17.558,-24.018 12.044,-9.945 25.954,-15.391 41.488,-16.429 11.989,-0.802 23.509,1.389 34.627,6.07 19.628,8.266 31.457,23.219 37.684,43.128 0.22,0.707 0.459,1.411 -0.28,2.024 -3.634,3.019 -7.533,5.399 -12.464,5.502 -5.348,0.111 -9.718,-2.318 -13.876,-5.277 -4.946,-3.521 -9.211,-7.827 -13.631,-11.952 -6.633,-6.19 -13.155,-12.501 -20.894,-17.374 -11.453,-7.212 -23.563,-9.436 -36.59,-5.038 -8.141,2.749 -15.206,7.368 -21.853,12.699 -4.14,3.319 -7.943,7.009 -11.769,10.665 m 50.037,43.692 c 0.146,-0.03 0.291,-0.06 0.437,-0.09 0.377,0.916 0.79,1.818 1.125,2.749 4.636,12.893 7.3,26.269 9.658,39.715 0.742,4.234 1.347,8.493 2.02,12.74 0.171,1.085 0.734,1.887 1.823,2.187 0.959,0.263 1.739,-0.148 2.273,-0.917 0.377,-0.545 0.651,-1.174 0.899,-1.793 4.005,-9.983 7.996,-19.971 12,-29.953 0.268,-0.672 0.327,-1.702 1.055,-1.84 0.926,-0.175 1.202,0.915 1.648,1.534 8.353,11.564 13.099,24.462 14.114,38.693 0.163,2.282 0.547,4.593 -1.007,6.789 C 36.071,-13.371 26.505,0.365 16.89,14.065 15.462,16.099 15.341,16.082 14.104,14.022 3.997,-2.804 -6.09,-19.643 -16.234,-36.446 c -0.703,-1.164 -0.639,-1.994 0.03,-3.103 8.561,-14.202 12.779,-29.804 14.731,-46.119 0.446,-3.72 0.783,-7.452 1.168,-11.179 m 16.509,45.33 c -0.905,-4.876 -1.738,-9.767 -2.732,-14.625 -2.251,-11.006 -4.611,-21.99 -9.131,-32.354 -1.048,-2.402 -2.222,-4.774 -4.053,-6.7 -0.96,-1.009 -2.026,-2.156 -3.658,-1.455 -1.522,0.653 -1.439,2.081 -1.48,3.453 -0.527,17.881 -3.287,35.323 -10.473,51.85 -3.653,8.399 -8.522,16.005 -15.132,22.435 -1.116,1.086 -1.679,1.418 -2.504,-0.32 -9.141,-19.261 -16.863,-39.013 -20.731,-60.08 -2.431,-13.244 -3.224,-26.529 -0.345,-39.846 0.341,-1.575 0.977,-2.258 2.569,-2.472 11.978,-1.607 23.441,0.105 34.432,5.105 9.608,4.371 17.862,10.698 25.51,17.842 10.333,9.654 19.436,20.463 28.831,30.999 3.525,3.953 6.72,8.285 11.276,11.183 14.463,9.198 34.098,1.262 38.19,-15.428 1.947,-7.933 3.019,-16.016 2.855,-24.167 -0.392,-19.456 -5.58,-37.397 -17.547,-53.066 -7.235,-9.473 -16.789,-15.918 -27.66,-20.278 -26.589,-10.664 -52.037,-8.312 -75.78,7.976 -15.804,10.841 -24.827,26.151 -27.927,44.978 -2.842,17.259 -0.513,34.168 3.81,50.893 5.21,20.16 13.367,39.172 22.875,57.628 12.872,24.981 27.832,48.663 44.584,71.218 0.241,0.324 0.506,0.628 0.761,0.941 1.871,2.293 3.12,2.295 5,0.082 5.549,-6.529 10.295,-13.637 14.657,-20.977 8.41,-14.151 14.754,-29.149 17.568,-45.468 4.357,-25.269 -1.088,-48.058 -17.442,-68.031 -1.707,-2.085 -3.644,-1.747 -4.715,0.895 -3.484,8.598 -6.915,17.22 -10.37,25.83 -0.271,0.675 -0.57,1.338 -0.856,2.007 -0.127,-0.016 -0.254,-0.032 -0.382,-0.048"
             style="fill:#01b4d2;fill-opacity:1;fill-rule:nonzero;stroke:none"
             id="path209" />
        </g>
        <g
           id="g211"
           transform="translate(161.21,194.7266)">
          <path
             d="m 0,0 c -1.542,-0.002 -3.089,0.072 -4.625,-0.022 -1.574,-0.097 -2.366,0.41 -2.358,2.107 0.018,3.826 0.076,7.638 1.198,11.342 0.392,1.294 0.93,2.51 1.853,3.531 2.405,2.656 5.768,2.532 7.93,-0.322 C 4.858,15.5 5.421,14.209 5.786,12.837 6.741,9.246 7.014,5.585 6.97,1.882 6.954,0.515 6.394,-0.058 5.027,-0.012 3.354,0.045 1.676,0.001 0,0"
             style="fill:#01b4d2;fill-opacity:1;fill-rule:nonzero;stroke:none"
             id="path213" />
        </g>
      </g>
    </g>
  </g>
</svg>
